<svg width="37" height="37" viewBox="0 0 37 37" fill="none" xmlns="http://www.w3.org/2000/svg">
<circle cx="18.5" cy="18.5" r="17.5" stroke="black" stroke-width="2"/>
<path d="M22.5793 16.344C23.1412 15.9377 23.56 15.3638 23.7753 14.7047C23.9907 14.0456 23.9916 13.3352 23.7779 12.6756C23.5643 12.0159 23.147 11.441 22.5862 11.0333C22.0253 10.6256 21.3496 10.4062 20.6562 10.4065H15.3438C14.6504 10.4062 13.9747 10.6256 13.4138 11.0333C12.853 11.441 12.4357 12.0159 12.2221 12.6756C12.0084 13.3352 12.0093 14.0456 12.2247 14.7047C12.44 15.3638 12.8588 15.9377 13.4207 16.344C13.0002 16.6476 12.6579 17.0467 12.4217 17.5085C12.1856 17.9703 12.0625 18.4815 12.0625 19.0002C12.0625 19.5188 12.1856 20.0301 12.4218 20.4919C12.6579 20.9536 13.0003 21.3528 13.4207 21.6564C12.9659 21.9857 12.6032 22.4263 12.3674 22.9359C12.1316 23.4456 12.0306 24.0072 12.074 24.567C12.1174 25.1269 12.3038 25.6662 12.6154 26.1334C12.9269 26.6006 13.3532 26.98 13.8533 27.2353C14.3535 27.4905 14.9108 27.6132 15.4719 27.5914C16.033 27.5696 16.5791 27.4041 17.058 27.1108C17.5368 26.8175 17.9324 26.4062 18.2068 25.9163C18.4811 25.4263 18.6251 24.8742 18.625 24.3126V21.5742C18.9675 21.8449 19.3606 22.0445 19.7812 22.1613C20.2019 22.278 20.6416 22.3096 21.0746 22.2542C21.5077 22.1988 21.9253 22.0574 22.3029 21.8385C22.6806 21.6195 23.0108 21.3274 23.2741 20.9792C23.5373 20.6309 23.7284 20.2336 23.8361 19.8106C23.9438 19.3875 23.966 18.9472 23.9013 18.5155C23.8366 18.0838 23.6863 17.6693 23.4593 17.2964C23.2323 16.9235 22.9331 16.5997 22.5793 16.344ZM22.6875 13.6877C22.6869 14.226 22.4729 14.7421 22.0924 15.1228C21.7119 15.5036 21.196 15.7179 20.6578 15.719L20.6562 15.7189L20.6532 15.719L18.625 15.7189V11.6565H20.6562C21.1948 11.6571 21.7111 11.8713 22.0919 12.2521C22.4727 12.6329 22.6869 13.1492 22.6875 13.6877ZM20.6562 21.0314C20.1179 21.0313 19.6016 20.8174 19.2208 20.4368C18.8401 20.0563 18.6259 19.5401 18.6256 19.0017C18.6252 18.4633 18.8385 17.9469 19.2187 17.5657C19.5989 17.1846 20.1149 16.9699 20.6532 16.969H20.6562L20.6577 16.969C21.1961 16.9697 21.7121 17.1841 22.0925 17.5651C22.4728 17.9461 22.6864 18.4626 22.6862 19.0009C22.686 19.5393 22.4721 20.0556 22.0914 20.4363C21.7108 20.817 21.1946 21.0311 20.6562 21.0314Z" fill="black"/>
</svg>
