<svg width="37" height="37" viewBox="0 0 37 37" fill="none" xmlns="http://www.w3.org/2000/svg">
<circle cx="18.5" cy="18.5" r="17.5" stroke="black" stroke-width="2"/>
<path d="M25.5 26.5C25.5 26.6658 25.4341 26.8247 25.3169 26.9419C25.1997 27.0592 25.0408 27.125 24.875 27.125C24.2122 27.1243 23.5767 26.8606 23.1081 26.3919C22.6394 25.9233 22.3758 25.2878 22.375 24.625V24C22.3746 23.6686 22.2428 23.3509 22.0085 23.1165C21.7741 22.8822 21.4564 22.7504 21.125 22.75H20.1875V25.875C20.1879 26.2064 20.3197 26.5241 20.554 26.7585C20.7884 26.9928 21.1061 27.1246 21.4375 27.125C21.6033 27.125 21.7622 27.1909 21.8794 27.3081C21.9967 27.4253 22.0625 27.5843 22.0625 27.75C22.0625 27.9158 21.9967 28.0747 21.8794 28.192C21.7622 28.3092 21.6033 28.375 21.4375 28.375C20.7747 28.3743 20.1392 28.1106 19.6706 27.6419C19.2019 27.1733 18.9383 26.5378 18.9375 25.875V22.75H17.0625V25.875C17.0617 26.5378 16.7981 27.1733 16.3294 27.6419C15.8608 28.1106 15.2253 28.3743 14.5625 28.375C14.3967 28.375 14.2378 28.3092 14.1206 28.192C14.0033 28.0747 13.9375 27.9158 13.9375 27.75C13.9375 27.5843 14.0033 27.4253 14.1206 27.3081C14.2378 27.1909 14.3967 27.125 14.5625 27.125C14.8939 27.1246 15.2116 26.9928 15.446 26.7585C15.6803 26.5241 15.8121 26.2064 15.8125 25.875V22.75H14.875C14.5436 22.7504 14.2259 22.8822 13.9915 23.1165C13.7572 23.3509 13.6254 23.6686 13.625 24V24.625C13.6242 25.2878 13.3606 25.9233 12.8919 26.3919C12.4233 26.8606 11.7878 27.1243 11.125 27.125C10.9592 27.125 10.8003 27.0592 10.6831 26.942C10.5658 26.8247 10.5 26.6658 10.5 26.5C10.5 26.3343 10.5658 26.1753 10.6831 26.0581C10.8003 25.9409 10.9592 25.875 11.125 25.875C11.4564 25.8746 11.7741 25.7428 12.0085 25.5085C12.2428 25.2741 12.3746 24.9564 12.375 24.625V24C12.3752 23.5803 12.4812 23.1675 12.683 22.7995C12.8848 22.4315 13.176 22.1203 13.5297 21.8945C12.978 21.4884 12.5295 20.9582 12.2204 20.3469C11.9112 19.7355 11.7501 19.0601 11.75 18.375V17.75C11.7576 16.9732 11.9646 16.2113 12.3512 15.5375C12.1599 14.9213 12.0984 14.2721 12.1708 13.631C12.2431 12.9898 12.4475 12.3706 12.7712 11.8125C12.8261 11.7175 12.905 11.6386 13 11.5837C13.095 11.5289 13.2028 11.5 13.3125 11.5C14.0406 11.4984 14.7589 11.6671 15.4102 11.9926C16.0614 12.3182 16.6274 12.7916 17.0631 13.3749L18.9369 13.375C19.3725 12.7916 19.9386 12.3182 20.5898 11.9927C21.241 11.6671 21.9594 11.4984 22.6875 11.5C22.7972 11.5 22.905 11.5289 23 11.5837C23.095 11.6386 23.1739 11.7175 23.2288 11.8125C23.5525 12.3706 23.7569 12.9898 23.8292 13.631C23.9015 14.2721 23.8401 14.9213 23.6488 15.5375C24.0354 16.2113 24.2424 16.9732 24.25 17.75V18.375C24.2499 19.0601 24.0888 19.7355 23.7796 20.3469C23.4705 20.9582 23.0219 21.4884 22.4703 21.8945C22.824 22.1203 23.1152 22.4315 23.317 22.7995C23.5188 23.1675 23.6248 23.5803 23.625 24V24.625C23.6254 24.9564 23.7572 25.2741 23.9915 25.5085C24.2259 25.7428 24.5436 25.8746 24.875 25.875C25.0408 25.875 25.1997 25.9409 25.3169 26.0581C25.4341 26.1753 25.5 26.3343 25.5 26.5Z" fill="black"/>
</svg>
