<svg width="40" height="24" viewBox="0 0 40 24" fill="none" xmlns="http://www.w3.org/2000/svg">
<path d="M27.875 0.1875H12.125C8.99213 0.1875 5.98757 1.43203 3.7723 3.6473C1.55703 5.86257 0.3125 8.86713 0.3125 12C0.3125 15.1329 1.55703 18.1374 3.7723 20.3527C5.98757 22.568 8.99213 23.8125 12.125 23.8125H27.875C31.0079 23.8125 34.0124 22.568 36.2277 20.3527C38.443 18.1374 39.6875 15.1329 39.6875 12C39.6875 8.86713 38.443 5.86257 36.2277 3.6473C34.0124 1.43203 31.0079 0.1875 27.875 0.1875ZM27.875 18.5625C26.5771 18.5625 25.3083 18.1776 24.2291 17.4565C23.1499 16.7354 22.3087 15.7105 21.812 14.5114C21.3153 13.3122 21.1854 11.9927 21.4386 10.7197C21.6918 9.44672 22.3168 8.27739 23.2346 7.35961C24.1524 6.44183 25.3217 5.81681 26.5947 5.5636C27.8677 5.31038 29.1872 5.44034 30.3864 5.93704C31.5855 6.43374 32.6104 7.27487 33.3315 8.35407C34.0526 9.43327 34.4375 10.7021 34.4375 12C34.4375 13.7405 33.7461 15.4097 32.5154 16.6404C31.2847 17.8711 29.6155 18.5625 27.875 18.5625Z" fill="black"/>
</svg>
